<?xml version="1.0" encoding="UTF-8" standalone="no"?>
<!DOCTYPE svg PUBLIC "-//W3C//DTD SVG 1.1//EN" "http://www.w3.org/Graphics/SVG/1.1/DTD/svg11.dtd">
<svg xmlns="http://www.w3.org/2000/svg" version="1.1" viewBox="0.00 0.00 665.00 161.00">
<path fill="#ffd600" d="
  M 294.18 47.19
  C 297.92 28.80 314.90 20.54 332.01 19.62
  Q 357.62 18.24 379.33 31.48
  Q 379.82 31.78 379.58 32.30
  L 370.25 52.76
  Q 370.00 53.30 369.48 53.00
  C 361.13 48.19 323.76 31.41 321.15 49.97
  C 320.07 57.60 326.27 61.29 332.89 63.76
  C 352.85 71.22 380.42 75.10 380.45 103.01
  C 380.48 130.05 355.71 140.18 332.50 138.60
  C 317.61 137.59 298.46 131.66 287.31 120.97
  Q 286.89 120.56 287.14 120.04
  L 296.71 99.97
  A 0.40 0.40 0.0 0 1 297.34 99.84
  Q 312.98 113.39 333.56 116.68
  C 338.81 117.52 347.90 116.24 351.12 111.15
  C 357.76 100.65 346.01 93.80 337.91 91.20
  Q 327.66 87.93 317.43 84.59
  C 300.29 79.00 290.43 65.64 294.18 47.19
  Z"
/>
<path fill="#ffd600" d="
  M 133.37 111.60
  Q 133.95 111.86 133.58 112.38
  C 108.80 146.33 53.75 148.24 28.36 113.80
  C 12.03 91.64 13.66 59.07 32.65 38.96
  C 59.74 10.29 110.41 13.64 133.68 45.49
  A 0.87 0.87 0.0 0 1 133.33 46.80
  L 110.45 57.00
  Q 109.99 57.20 109.67 56.81
  C 98.14 42.74 80.28 38.64 64.11 46.61
  C 51.74 52.71 43.38 65.47 43.50 79.27
  C 43.68 100.62 64.11 118.81 85.47 115.42
  Q 100.27 113.08 109.46 101.64
  A 0.85 0.85 0.0 0 1 110.46 101.40
  L 133.37 111.60
  Z"
/>
<path fill="#ffd600" d="
  M 209.46 49.03
  Q 191.20 94.84 177.73 132.49
  Q 176.69 135.39 175.73 137.29
  A 0.83 0.82 -76.6 0 1 174.99 137.75
  L 149.77 137.75
  A 0.51 0.51 0.0 0 1 149.30 137.05
  L 196.38 20.98
  Q 196.58 20.50 197.10 20.50
  L 223.52 20.50
  A 1.12 1.12 0.0 0 1 224.56 21.21
  L 270.54 136.97
  A 0.57 0.57 0.0 0 1 270.01 137.75
  L 244.10 137.75
  Q 242.87 137.75 242.45 136.60
  L 209.87 49.04
  Q 209.67 48.50 209.46 49.03
  Z"
/>
<rect fill="#ffd600" x="408.50" y="20.50" width="26.26" height="117.00" rx="0.43"/>
<path fill="#ffd600" d="
  M 451.33 90.50
  L 454.48 70.09
  A 0.67 0.67 0.0 0 1 455.15 69.53
  L 483.33 69.83
  A 0.67 0.67 0.0 0 0 484.01 69.16
  L 483.98 21.17
  A 0.67 0.67 0.0 0 1 484.65 20.50
  L 509.33 20.50
  A 0.67 0.67 0.0 0 1 510.00 21.17
  L 510.00 137.15
  A 0.67 0.67 0.0 0 1 509.32 137.82
  L 484.66 137.55
  A 0.67 0.67 0.0 0 1 484.00 136.88
  L 484.00 91.89
  A 0.67 0.67 0.0 0 0 483.33 91.22
  L 451.99 91.27
  A 0.67 0.67 0.0 0 1 451.33 90.50
  Z"
/>
<path fill="#ffd600" d="
  M 566.45 137.77
  L 542.82 137.70
  A 0.32 0.32 0.0 0 1 542.50 137.38
  L 542.50 20.82
  A 0.32 0.32 0.0 0 1 542.82 20.50
  L 565.66 20.50
  A 0.32 0.32 0.0 0 1 565.92 20.64
  L 643.65 137.21
  A 0.32 0.32 0.0 0 1 643.38 137.71
  L 617.31 137.77
  A 0.32 0.32 0.0 0 1 617.04 137.63
  L 567.33 62.09
  A 0.32 0.32 0.0 0 0 566.74 62.27
  L 566.77 137.45
  A 0.32 0.32 0.0 0 1 566.45 137.77
  Z"
/>
<path fill="#ffffff" d="
  M 619.69 25.19
  Q 619.74 22.49 619.69 21.08
  Q 619.67 20.50 620.25 20.50
  L 643.50 20.50
  A 0.50 0.50 0.0 0 1 644.00 21.00
  L 644.00 110.25
  Q 644.00 110.83 643.51 110.52
  C 632.72 103.72 625.18 92.43 621.01 80.49
  Q 619.82 77.08 619.73 72.82
  Q 619.23 47.06 619.69 25.19
  Z"
/>
</svg>
