<?xml version="1.0" encoding="UTF-8" standalone="no"?>
<svg xmlns="http://www.w3.org/2000/svg" version="1.2" baseProfile="tiny" viewBox="0.00 0.00 501.00 498.00">
<path fill="#ffd600" d="
  M 8.76 70.60
  L 74.12 5.31
  Q 74.42 5.00 74.86 5.00
  L 429.78 5.00
  A 6.35 6.34 -22.4 0 1 434.28 6.87
  Q 463.03 35.78 492.76 65.24
  C 495.10 67.55 496.00 69.05 496.00 72.56
  Q 496.00 249.27 496.00 425.97
  Q 496.00 426.48 495.64 426.83
  L 430.66 491.98
  A 3.49 3.45 -67.3 0 1 428.21 493.00
  L 72.51 493.00
  A 2.44 2.43 -22.6 0 1 70.80 492.30
  Q 41.68 463.37 12.18 433.82
  Q 9.37 431.00 7.20 427.68
  A 1.30 1.23 -62.7 0 1 7.00 426.99
  L 7.00 74.85
  A 6.01 6.01 0.0 0 1 8.76 70.60
  Z
  M 475.82 76.17
  C 457.34 58.28 439.50 39.70 421.19 21.79
  A 2.78 2.78 0.0 0 0 419.25 21.00
  L 82.69 21.00
  A 0.75 0.75 0.0 0 0 82.16 21.22
  L 24.67 78.79
  Q 24.00 79.46 24.00 80.41
  L 24.00 418.22
  A 1.14 1.10 23.6 0 0 24.32 419.00
  L 82.13 476.62
  A 1.09 0.95 -16.9 0 0 82.80 476.92
  Q 84.60 477.04 87.50 477.02
  Q 122.03 476.73 156.56 476.08
  C 188.71 475.48 231.07 476.90 275.75 476.98
  C 333.64 477.08 375.86 476.13 414.25 477.04
  C 417.46 477.11 420.54 476.47 422.71 474.46
  Q 448.99 450.11 478.92 418.36
  Q 479.25 418.01 479.40 417.53
  C 479.64 416.76 479.99 416.02 479.99 415.20
  Q 480.03 272.88 479.97 130.56
  C 479.96 119.27 479.25 101.35 479.92 86.48
  Q 480.19 80.40 475.82 76.17
  Z"
/>
<path fill="#ffd600" d="
  M 358.79 368.88
  C 301.05 401.71 227.33 399.65 178.69 351.57
  C 140.71 314.02 130.66 257.55 143.56 206.76
  C 154.34 164.30 184.20 130.64 225.03 115.27
  C 267.80 99.18 316.50 106.34 355.52 129.22
  Q 356.98 130.08 358.38 131.77
  A 0.72 0.42 43.1 0 1 358.56 132.38
  L 338.21 180.82
  A 2.18 2.17 26.8 0 1 335.09 181.84
  C 310.85 167.32 287.52 156.79 258.42 163.85
  C 207.92 176.12 187.85 230.65 200.71 277.68
  C 211.26 316.23 242.05 337.92 281.90 336.83
  C 304.55 336.21 321.67 328.68 340.13 315.88
  A 1.58 1.57 -29.7 0 1 342.45 316.51
  L 363.94 362.81
  A 2.41 2.40 -30.2 0 1 363.15 365.78
  C 361.74 366.79 360.29 368.03 358.79 368.88
  Z"
/>
</svg>
