<?xml version="1.0" standalone="no"?>
<!DOCTYPE svg PUBLIC "-//W3C//DTD SVG 20010904//EN"
 "http://www.w3.org/TR/2001/REC-SVG-20010904/DTD/svg10.dtd">
<svg version="1.0" xmlns="http://www.w3.org/2000/svg"
 width="1002.000000pt" height="1002.000000pt" viewBox="0 0 1002.000000 1002.000000"
 preserveAspectRatio="xMidYMid meet">
<metadata>
Created by potrace 1.14, written by Peter Selinger 2001-2017
</metadata>
<g transform="translate(0.000000,1002.000000) scale(0.100000,-0.100000)"
fill="#000000" stroke="none">
<path d="M1180 9582 c-168 -168 -308 -305 -312 -304 -5 1 -8 -2 -8 -7 0 -5
-159 -168 -354 -362 -308 -308 -355 -359 -361 -391 -4 -21 -5 -44 -2 -53 4 -8
2 -17 -3 -20 -7 -4 -6 -13 0 -26 6 -11 7 -19 1 -19 -5 0 -6 -14 -1 -35 4 -20
4 -38 -1 -41 -5 -3 -5 -13 1 -25 6 -10 7 -19 3 -19 -4 0 -6 -43 -3 -96 3 -53
2 -98 -3 -101 -4 -2 -2 -13 3 -24 6 -11 7 -19 1 -19 -5 0 -6 -14 -1 -35 4 -20
4 -38 -1 -41 -5 -3 -5 -13 1 -25 6 -11 7 -19 1 -19 -5 0 -6 -14 -1 -35 4 -20
4 -38 -1 -41 -5 -3 -5 -13 1 -25 6 -10 7 -19 3 -19 -4 0 -6 -43 -3 -96 3 -53
2 -98 -3 -101 -4 -2 -2 -13 3 -24 6 -11 7 -19 1 -19 -5 0 -6 -14 -1 -35 4 -20
4 -38 -1 -41 -5 -3 -5 -13 1 -25 6 -11 7 -19 1 -19 -5 0 -6 -14 -1 -35 4 -20
4 -38 -1 -41 -5 -3 -5 -13 1 -25 6 -10 7 -19 3 -19 -4 0 -6 -43 -3 -96 3 -53
2 -98 -3 -101 -4 -2 -2 -13 3 -24 6 -11 7 -19 1 -19 -5 0 -6 -14 -1 -35 4 -20
4 -38 -1 -41 -5 -3 -5 -13 1 -25 6 -11 7 -19 1 -19 -5 0 -6 -14 -1 -35 4 -20
4 -38 -1 -41 -5 -3 -5 -13 1 -25 6 -10 7 -19 3 -19 -4 0 -6 -43 -3 -96 3 -53
2 -98 -3 -101 -4 -2 -2 -13 3 -24 6 -11 7 -19 1 -19 -5 0 -6 -14 -1 -35 4 -20
4 -38 -1 -41 -5 -3 -5 -13 1 -25 6 -11 7 -19 1 -19 -5 0 -6 -14 -1 -35 4 -20
4 -38 -1 -41 -5 -3 -5 -13 1 -25 6 -10 7 -19 3 -19 -4 0 -6 -43 -3 -96 3 -53
2 -98 -3 -101 -4 -2 -2 -13 3 -24 6 -11 7 -19 1 -19 -5 0 -6 -14 -1 -35 4 -20
4 -38 -1 -41 -5 -3 -5 -13 1 -25 6 -11 7 -19 1 -19 -5 0 -6 -14 -1 -35 4 -20
4 -38 -1 -41 -5 -3 -5 -13 1 -25 6 -10 7 -19 3 -19 -4 0 -6 -43 -3 -96 3 -53
2 -98 -3 -101 -4 -2 -2 -13 3 -24 6 -11 7 -19 1 -19 -5 0 -6 -14 -1 -35 4 -20
4 -38 -1 -41 -5 -3 -5 -13 1 -25 6 -11 7 -19 1 -19 -5 0 -6 -14 -1 -35 4 -20
4 -38 -1 -41 -5 -3 -5 -13 1 -25 6 -10 7 -19 3 -19 -4 0 -6 -43 -3 -96 3 -53
2 -98 -3 -101 -4 -2 -2 -13 3 -24 6 -11 7 -19 1 -19 -5 0 -6 -14 -1 -35 4 -20
4 -38 -1 -41 -5 -3 -5 -13 1 -25 6 -11 7 -19 1 -19 -5 0 -6 -14 -1 -35 4 -20
4 -38 -1 -41 -5 -3 -5 -13 1 -25 6 -10 7 -19 3 -19 -4 0 -6 -43 -3 -96 3 -53
2 -98 -3 -101 -4 -2 -2 -13 3 -24 6 -11 7 -19 1 -19 -5 0 -6 -14 -1 -35 4 -20
4 -38 -1 -41 -5 -3 -5 -13 1 -25 6 -11 7 -19 1 -19 -5 0 -6 -14 -1 -35 4 -20
4 -38 -1 -41 -5 -3 -5 -13 1 -25 6 -10 7 -19 3 -19 -4 0 -6 -43 -3 -96 3 -53
2 -98 -3 -101 -4 -2 -2 -13 3 -24 6 -11 7 -19 1 -19 -5 0 -6 -14 -1 -35 4 -20
4 -38 -1 -41 -5 -3 -5 -13 1 -25 6 -11 7 -19 1 -19 -5 0 -6 -14 -1 -35 4 -20
4 -38 -1 -41 -5 -3 -5 -13 1 -25 6 -10 7 -19 3 -19 -4 0 -6 -43 -3 -96 3 -53
2 -98 -3 -101 -4 -2 -2 -13 3 -24 6 -11 7 -19 1 -19 -5 0 -6 -14 -1 -35 4 -20
4 -38 -1 -41 -5 -3 -5 -13 1 -25 6 -11 7 -19 1 -19 -5 0 -6 -14 -1 -35 4 -20
4 -38 -1 -41 -5 -3 -5 -13 1 -25 6 -10 7 -19 3 -19 -4 0 -6 -43 -3 -96 3 -53
2 -98 -3 -101 -4 -2 -2 -13 3 -24 6 -11 7 -19 1 -19 -5 0 -6 -14 -1 -35 4 -20
4 -38 -1 -41 -5 -3 -5 -13 1 -25 6 -11 7 -19 1 -19 -5 0 -6 -14 -1 -35 4 -20
4 -38 -1 -41 -5 -3 -5 -13 1 -25 6 -10 7 -19 3 -19 -4 0 -6 -43 -3 -96 3 -53
2 -98 -3 -101 -4 -2 -2 -13 3 -24 6 -11 7 -19 1 -19 -5 0 -6 -14 -1 -35 4 -20
4 -38 -1 -41 -5 -3 -5 -13 1 -25 6 -11 7 -19 1 -19 -5 0 -6 -14 -1 -35 4 -20
4 -38 -1 -41 -5 -3 -5 -13 1 -25 6 -10 7 -19 3 -19 -4 0 -6 -43 -3 -96 3 -53
2 -98 -3 -101 -4 -2 -2 -13 3 -24 6 -11 7 -19 1 -19 -5 0 -6 -14 -1 -35 4 -20
4 -38 -1 -41 -5 -3 -5 -13 1 -25 6 -11 7 -19 1 -19 -5 0 -6 -14 -1 -35 4 -20
4 -38 -1 -41 -5 -3 -5 -13 1 -25 6 -10 7 -19 3 -19 -4 0 -6 -43 -3 -96 3 -53
2 -98 -3 -101 -4 -2 -2 -13 3 -24 6 -11 7 -19 1 -19 -5 0 -6 -14 -1 -35 4 -20
4 -38 -1 -41 -5 -3 -5 -13 1 -25 6 -11 7 -19 1 -19 -5 0 -6 -14 -1 -35 4 -20
4 -38 -1 -41 -5 -3 -5 -13 1 -25 6 -10 7 -19 3 -19 -5 0 -6 -29 -3 -63 7 -82
17 -95 237 -316 95 -95 173 -177 173 -182 0 -5 5 -9 11 -9 6 0 27 -19 47 -41
20 -23 43 -47 49 -53 7 -6 184 -181 393 -388 l380 -378 3582 0 3581 0 658 660
c362 362 663 668 668 679 7 13 8 22 1 26 -6 4 -7 13 -1 24 5 9 6 23 1 31 -4 7
-4 24 0 36 6 14 5 26 0 29 -6 4 -7 13 -1 24 5 9 6 23 1 31 -4 7 -4 24 0 36 6
14 5 26 0 29 -6 4 -7 13 -1 24 5 9 6 23 1 31 -4 7 -4 24 0 36 6 14 5 26 0 29
-6 4 -7 13 -1 24 6 10 6 23 1 31 -5 8 -5 21 0 31 5 9 7 19 4 22 -7 7 -11 97
-4 97 3 0 5 16 5 35 0 19 -3 35 -7 35 -4 0 -3 13 2 28 4 16 4 35 -1 43 -4 8
-4 21 1 28 4 8 4 27 0 42 -5 16 -5 29 -1 29 8 0 6 54 -3 69 -4 5 -2 12 4 16 6
4 7 12 1 23 -5 9 -5 26 0 39 5 13 4 25 -1 28 -6 4 -7 13 -1 24 6 10 6 23 1 31
-5 8 -5 21 0 30 5 9 4 23 -1 32 -6 10 -6 19 0 23 7 3 7 15 1 29 -5 13 -6 27
-3 30 8 8 9 186 1 186 -4 0 -3 14 2 30 5 17 6 30 2 30 -4 0 -7 23 -7 50 0 28
2 50 5 50 3 0 5 16 5 35 0 19 -3 35 -7 35 -4 0 -3 13 2 28 4 16 4 35 -1 43 -4
8 -4 21 1 28 4 8 4 27 0 42 -5 16 -5 29 -1 29 8 0 5 65 -4 80 -3 6 -3 10 2 10
4 0 8 29 8 65 0 36 -3 65 -7 65 -4 0 -3 14 2 30 5 18 5 30 0 30 -6 0 -6 10 0
25 6 15 6 27 0 30 -6 3 -6 15 0 30 6 15 6 27 0 30 -6 4 -7 13 -1 24 5 9 6 23
1 31 -4 7 -4 24 0 36 6 14 5 26 0 29 -6 4 -7 13 -1 24 6 10 6 23 1 31 -5 8 -5
21 0 31 5 9 7 19 4 22 -7 7 -11 97 -4 97 3 0 5 16 5 35 0 19 -3 35 -7 35 -4 0
-3 13 2 28 4 16 4 35 -1 43 -4 8 -4 21 1 28 4 8 4 27 0 42 -5 16 -5 29 -1 29
8 0 6 54 -3 69 -4 5 -2 12 4 16 6 4 7 12 1 23 -5 9 -5 26 0 39 5 13 4 25 -1
28 -6 4 -7 13 -1 24 6 10 6 23 1 31 -5 8 -5 21 0 30 5 9 4 23 -1 32 -6 10 -6
19 0 23 7 3 7 15 1 29 -5 13 -6 27 -3 30 8 8 9 186 1 186 -4 0 -3 14 2 30 5
17 6 30 2 30 -4 0 -7 23 -7 50 0 28 2 50 5 50 3 0 5 16 5 35 0 19 -3 35 -7 35
-4 0 -3 13 2 28 4 16 4 35 -1 43 -4 8 -4 21 1 28 4 8 4 27 0 42 -5 16 -5 29
-1 29 8 0 5 65 -4 80 -3 6 -3 10 2 10 4 0 8 29 8 65 0 36 -3 65 -7 65 -4 0 -3
14 2 30 5 18 5 30 0 30 -6 0 -6 10 0 25 6 15 6 27 0 30 -6 3 -6 15 0 30 6 15
6 27 0 30 -6 4 -7 13 -1 24 5 9 6 23 1 31 -4 7 -4 24 0 36 6 14 5 26 0 29 -6
4 -7 13 -1 24 6 10 6 23 1 31 -5 8 -5 21 0 31 5 9 7 19 4 22 -7 7 -11 97 -4
97 3 0 5 16 5 35 0 19 -3 35 -7 35 -4 0 -3 13 2 28 4 16 4 35 -1 43 -4 8 -4
21 1 28 4 8 4 27 0 42 -5 16 -5 29 -1 29 8 0 6 54 -3 69 -4 5 -2 12 4 16 6 4
7 12 1 23 -5 9 -5 26 0 39 5 13 4 25 -1 28 -6 4 -7 13 -1 24 6 10 6 23 1 31
-5 8 -5 21 0 30 5 9 4 23 -1 32 -6 10 -6 19 0 23 7 3 7 15 1 29 -5 13 -6 27
-3 30 8 8 9 186 1 186 -4 0 -3 14 2 30 5 17 6 30 2 30 -4 0 -7 23 -7 50 0 28
2 50 5 50 3 0 5 16 5 35 0 19 -3 35 -7 35 -4 0 -3 13 2 28 4 16 4 35 -1 43 -4
8 -4 21 1 28 4 8 4 27 0 42 -5 16 -5 29 -1 29 8 0 5 65 -4 80 -3 6 -3 10 2 10
4 0 8 29 8 65 0 36 -3 65 -7 65 -4 0 -3 14 2 30 5 18 5 30 0 30 -6 0 -6 10 0
25 6 15 6 27 0 30 -6 3 -6 15 0 30 6 15 6 27 0 30 -6 4 -7 13 -1 24 5 9 6 23
1 31 -4 7 -4 24 0 36 6 14 5 26 0 29 -6 4 -7 13 -1 24 6 10 6 23 1 31 -5 8 -5
21 0 31 5 9 7 19 4 22 -7 7 -11 97 -4 97 3 0 5 16 5 35 0 19 -3 35 -7 35 -4 0
-3 13 2 28 4 16 4 35 -1 43 -4 8 -4 21 1 28 4 8 4 27 0 42 -5 16 -5 29 -1 29
8 0 6 54 -3 69 -4 5 -2 12 4 16 6 4 7 12 1 23 -5 9 -5 26 0 39 5 13 4 25 -1
28 -6 4 -7 13 -1 23 5 10 6 24 1 33 -5 8 -5 21 0 29 5 8 5 21 -1 31 -6 11 -5
20 1 24 5 3 6 15 1 28 -5 12 -5 34 0 49 4 16 3 30 -2 33 -5 4 -5 13 0 24 6 10
6 23 1 31 -5 8 -6 18 -4 22 22 35 -30 91 -624 685 -334 333 -620 614 -637 624
-29 18 -146 19 -3600 18 l-3570 0 -305 -307z m7803 -584 c359 -360 575 -583
589 -610 22 -41 22 -50 23 -457 0 -229 4 -422 8 -428 5 -7 5 -13 0 -13 -4 0
-7 -19 -5 -42 1 -24 2 -61 2 -83 -1 -22 -1 -47 -1 -55 2 -75 1 -103 -3 -107
-2 -3 0 -18 4 -34 5 -16 6 -29 2 -29 -4 0 -6 -19 -4 -42 4 -66 3 -151 -3 -156
-2 -3 0 -13 5 -23 6 -10 6 -20 1 -23 -4 -3 -5 -23 -1 -44 3 -21 3 -47 0 -58
-4 -10 -4 -29 1 -41 5 -12 4 -25 0 -28 -5 -3 -5 -20 -1 -39 4 -19 5 -37 2 -40
-8 -9 -8 -66 0 -66 4 0 4 -10 -1 -22 -5 -13 -5 -32 -1 -43 4 -11 4 -29 0 -40
-4 -11 -4 -30 1 -42 5 -12 4 -25 0 -28 -5 -3 -5 -20 -1 -39 4 -19 5 -37 2 -40
-9 -9 -8 -66 1 -66 5 0 5 -5 2 -11 -6 -9 -10 -149 -5 -174 1 -5 1 -14 0 -20
-4 -23 -3 -92 2 -100 3 -6 2 -19 -1 -29 -4 -11 -4 -39 -1 -63 4 -23 4 -43 1
-43 -4 0 -5 -15 -4 -32 3 -54 4 -91 3 -139 0 -26 0 -51 1 -55 1 -5 0 -13 -1
-19 -2 -13 -2 -87 0 -100 1 -5 1 -14 0 -20 -2 -13 -2 -87 0 -100 1 -5 1 -14 0
-20 -2 -13 -2 -87 0 -100 1 -5 1 -14 0 -20 -2 -13 -2 -87 0 -100 1 -5 1 -14 0
-20 -4 -21 -1 -95 4 -104 4 -5 2 -12 -3 -15 -4 -3 -5 -23 -1 -44 3 -21 3 -47
0 -58 -4 -10 -4 -28 0 -40 5 -11 5 -27 0 -34 -4 -7 -4 -25 0 -40 4 -15 4 -33
0 -40 -4 -7 -4 -26 0 -41 5 -16 6 -29 2 -29 -8 0 -8 -52 0 -66 3 -5 2 -18 -2
-29 -4 -11 -4 -29 0 -41 5 -11 5 -27 0 -34 -4 -7 -4 -25 0 -40 4 -15 4 -33 0
-40 -4 -7 -4 -26 0 -41 5 -16 6 -29 2 -29 -4 0 -6 -33 -5 -72 2 -40 3 -92 3
-115 -1 -24 -1 -50 -1 -58 0 -8 0 -35 0 -60 0 -25 0 -52 0 -60 0 -8 0 -35 0
-60 0 -25 0 -52 0 -60 0 -8 0 -35 0 -60 0 -25 0 -52 0 -60 0 -8 0 -35 0 -60 0
-25 0 -52 0 -60 0 -8 0 -35 0 -60 0 -25 0 -51 0 -57 0 -7 0 -31 1 -53 0 -22
-1 -59 -2 -83 -2 -23 0 -42 4 -42 4 0 3 -12 -1 -27 -4 -16 -5 -41 -1 -58 3
-16 3 -48 0 -70 -4 -23 -3 -53 1 -68 4 -15 4 -27 0 -27 -4 0 -5 -19 -1 -42 3
-24 3 -54 0 -68 -4 -14 -3 -32 1 -41 4 -8 4 -21 -1 -28 -4 -8 -4 -26 0 -41 4
-15 4 -33 0 -40 -4 -7 -4 -26 0 -41 5 -16 6 -29 2 -29 -4 0 -7 -16 -7 -35 0
-19 3 -35 7 -35 4 0 3 -13 -2 -29 -4 -15 -4 -34 0 -42 5 -7 5 -20 1 -28 -5 -8
-5 -26 -1 -41 4 -15 4 -33 0 -40 -4 -7 -4 -26 0 -41 5 -16 6 -29 2 -29 -4 0
-6 -39 -4 -87 1 -49 2 -94 2 -100 0 -18 0 -100 0 -115 0 -7 0 -31 -1 -53 0
-22 0 -44 1 -50 1 -5 1 -14 0 -20 -1 -5 -1 -30 -1 -55 2 -65 2 -71 0 -115 0
-22 0 -44 1 -50 1 -5 1 -14 0 -20 -1 -5 -2 -26 -1 -46 0 -23 -8 -49 -22 -70
-33 -49 -185 -207 -562 -584 -389 -388 -565 -554 -608 -574 -27 -12 -299 -15
-1909 -16 -1033 -1 -1898 1 -1923 5 -25 4 -45 3 -45 -1 0 -4 -8 -5 -17 -3 -38
9 -89 10 -105 2 -10 -5 -18 -5 -18 -1 0 18 -1609 17 -1638 -1 -6 -4 -12 -3
-12 1 0 5 -19 8 -42 6 -24 -1 -269 -5 -545 -8 l-502 -6 -585 584 c-357 355
-586 591 -587 603 -3 131 -3 164 1 164 3 0 5 23 5 50 0 28 -4 50 -8 50 -4 0
-4 8 1 18 5 9 6 26 2 37 -4 11 -4 29 0 40 10 26 10 35 -1 63 -5 12 -5 22 0 22
5 0 6 15 1 33 -4 18 -3 43 1 55 5 13 4 22 -1 22 -6 0 -6 9 0 25 6 16 6 25 0
25 -6 0 -6 9 0 25 5 13 6 27 1 29 -4 3 -5 26 -1 50 4 25 3 51 -1 58 -4 6 -3
20 2 29 6 12 5 20 -1 24 -8 5 -8 11 -1 19 6 7 9 15 6 18 -7 6 -12 108 -5 108
6 0 4 116 -3 127 -3 5 -2 15 3 23 5 9 5 19 -1 26 -7 8 -7 14 0 18 6 4 8 12 5
19 -6 18 -10 107 -4 107 7 0 4 86 -4 105 -3 8 -1 15 3 15 5 0 6 15 1 33 -4 18
-3 43 1 55 5 13 4 22 -1 22 -6 0 -6 9 0 25 6 16 6 25 0 25 -6 0 -6 9 0 25 5
13 5 27 1 29 -5 3 -5 24 -1 46 4 22 3 40 -2 40 -5 0 -5 7 0 18 5 9 6 26 2 37
-4 11 -4 29 0 40 4 11 6 29 4 40 -8 44 -9 105 -2 105 4 0 5 6 3 13 -7 18 -11
127 -5 127 3 0 5 23 5 50 0 28 -4 50 -8 50 -4 0 -4 8 1 18 5 9 6 26 2 37 -4
11 -3 31 2 45 5 14 9 25 9 25 0 0 -4 12 -10 28 -6 15 -7 27 -2 27 5 0 6 15 1
33 -4 18 -3 43 1 55 5 13 4 22 -1 22 -6 0 -6 9 0 25 6 16 6 25 0 25 -6 0 -6 9
0 25 5 13 6 27 1 29 -4 3 -5 26 -1 50 4 25 3 51 -1 58 -4 6 -3 20 2 29 6 12 5
20 -1 24 -8 5 -8 11 -1 19 6 7 9 15 6 18 -7 6 -12 108 -5 108 6 0 4 116 -3
127 -3 5 -2 15 3 23 5 9 5 19 -1 26 -7 8 -7 14 0 18 6 4 8 12 5 19 -6 18 -10
107 -4 107 7 0 4 86 -4 105 -3 8 -1 15 3 15 5 0 6 15 1 33 -4 18 -3 43 1 55 5
13 4 22 -1 22 -6 0 -6 9 0 25 6 16 6 25 0 25 -6 0 -6 9 0 25 5 13 5 27 1 29
-5 3 -5 24 -1 46 4 22 3 40 -2 40 -5 0 -5 7 0 18 5 9 6 26 2 37 -4 11 -4 29 0
40 4 11 6 29 4 40 -8 44 -9 105 -2 105 4 0 5 6 3 13 -7 18 -11 127 -5 127 3 0
5 23 5 50 0 28 -4 50 -8 50 -4 0 -4 8 1 18 5 9 6 26 2 37 -6 17 -5 28 10 65 1
3 -3 17 -9 33 -6 15 -7 27 -2 27 5 0 6 15 1 33 -4 18 -3 43 1 55 5 13 4 22 -1
22 -6 0 -6 9 0 25 6 16 6 25 0 25 -6 0 -6 9 0 25 5 13 6 27 1 29 -4 3 -5 26
-1 50 4 25 3 51 -1 58 -4 6 -3 20 2 29 6 12 5 20 -1 24 -8 5 -8 11 -1 19 6 7
9 15 6 18 -7 6 -12 108 -5 108 6 0 4 116 -3 127 -3 5 -2 15 3 23 5 9 5 19 -1
26 -7 8 -7 14 0 18 6 4 8 12 5 19 -6 18 -10 107 -4 107 7 0 4 86 -4 105 -3 8
-1 15 3 15 5 0 6 15 1 33 -4 18 -3 43 1 55 5 13 4 22 -1 22 -6 0 -6 9 0 25 6
16 6 25 0 25 -6 0 -6 9 0 25 5 13 5 27 1 29 -5 3 -5 24 -1 46 4 22 3 40 -2 40
-5 0 -5 7 0 18 5 9 6 26 2 37 -4 11 -4 29 0 40 4 11 6 29 4 40 -8 44 -9 105
-2 105 4 0 5 6 3 13 -7 18 -11 127 -5 127 3 0 5 23 5 50 0 28 -4 50 -8 50 -4
0 -4 8 1 18 5 9 6 26 2 37 -4 11 -3 31 2 45 5 14 9 27 8 30 -2 3 -6 15 -11 28
-5 12 -5 22 0 22 5 0 6 15 1 33 -4 18 -3 43 1 55 5 13 4 22 -1 22 -6 0 -6 9 0
25 6 16 6 25 0 25 -6 0 -6 9 0 25 5 13 6 27 1 29 -4 3 -5 26 -1 50 4 25 3 51
-1 58 -4 6 -3 20 2 29 6 12 5 20 -1 24 -8 5 -8 11 -1 19 6 7 9 15 6 18 -8 7
-11 108 -4 108 4 0 5 9 2 19 -4 15 126 151 579 605 l583 586 3385 -3 3385 -2
568 -567z"/>
<path d="M5308 7855 c-2 -2 -37 -6 -78 -9 -41 -3 -91 -8 -110 -11 -19 -3 -56
-7 -82 -9 -25 -2 -50 -6 -55 -9 -4 -2 -28 -8 -53 -12 -25 -4 -72 -14 -105 -22
-33 -9 -64 -16 -70 -18 -48 -10 -202 -58 -240 -75 -11 -5 -45 -19 -75 -30 -30
-12 -83 -35 -116 -51 -34 -16 -64 -29 -67 -29 -10 0 -242 -134 -255 -147 -7
-7 -17 -13 -22 -13 -5 0 -15 -6 -22 -13 -7 -6 -32 -25 -56 -40 -23 -15 -50
-34 -60 -41 -108 -88 -155 -128 -201 -170 -77 -73 -90 -86 -151 -153 -91 -99
-113 -125 -162 -193 -26 -36 -51 -69 -55 -75 -34 -42 -153 -239 -153 -253 0
-6 -3 -12 -7 -14 -10 -4 -73 -131 -73 -146 0 -7 -4 -12 -10 -12 -5 0 -10 -6
-10 -14 0 -7 -9 -35 -21 -62 -11 -27 -24 -58 -28 -69 -5 -11 -14 -33 -21 -50
-7 -16 -14 -37 -15 -45 -2 -8 -12 -42 -23 -75 -18 -55 -47 -160 -58 -210 -2
-11 -6 -29 -8 -40 -2 -11 -7 -31 -10 -45 -3 -14 -8 -36 -10 -50 -3 -14 -10
-50 -16 -82 -6 -31 -10 -60 -8 -65 1 -4 -1 -21 -5 -38 -4 -16 -9 -50 -11 -75
-2 -25 -8 -81 -12 -125 -13 -146 -7 -528 10 -622 2 -10 7 -45 11 -78 3 -33 11
-82 16 -110 6 -27 13 -63 15 -80 26 -155 120 -448 200 -623 13 -29 24 -57 24
-62 0 -6 5 -10 10 -10 6 0 10 -6 10 -14 0 -8 18 -46 40 -85 22 -39 40 -72 40
-75 0 -7 139 -216 167 -251 13 -16 32 -40 41 -53 16 -20 66 -81 102 -122 70
-81 202 -208 284 -275 27 -22 63 -52 80 -67 17 -15 37 -28 44 -28 6 0 12 -4
12 -8 0 -4 15 -16 33 -27 17 -10 34 -22 37 -25 8 -12 165 -107 235 -144 36
-19 72 -39 80 -46 8 -6 20 -13 27 -14 7 -1 31 -10 53 -20 37 -17 72 -32 135
-59 14 -6 30 -11 35 -12 6 0 19 -6 30 -12 11 -6 22 -11 25 -11 3 0 18 -6 34
-12 16 -6 38 -12 50 -15 11 -2 22 -4 24 -6 1 -1 7 -3 12 -4 6 -1 12 -4 15 -5
3 -1 10 -4 15 -5 6 -1 13 -4 18 -5 4 -1 12 -3 17 -5 6 -1 12 -3 15 -4 21 -10
240 -56 313 -66 27 -4 57 -8 66 -10 143 -27 649 -26 786 1 16 4 43 8 60 9 16
1 45 5 63 9 19 5 43 9 55 11 130 18 549 135 592 165 6 4 40 17 78 30 37 13 67
27 67 32 0 4 7 8 15 8 23 0 314 151 367 191 45 33 63 61 49 74 -3 4 -6 10 -7
13 -1 11 -18 48 -78 176 -87 182 -99 210 -99 224 0 6 -4 12 -8 12 -4 0 -20 30
-35 68 -16 37 -32 69 -36 70 -5 2 -8 10 -8 18 0 8 -4 22 -10 32 -25 45 -78
162 -74 162 3 0 -3 12 -14 28 -11 15 -20 32 -21 37 -3 24 -47 105 -60 110 -7
3 -41 -13 -75 -35 -303 -197 -535 -298 -816 -356 -26 -5 -37 -6 -150 -20 -171
-21 -525 1 -650 41 -10 3 -27 7 -37 9 -41 8 -181 59 -250 91 -78 36 -223 121
-260 152 -12 10 -36 29 -54 43 -146 114 -313 327 -402 510 -40 83 -87 200 -87
216 0 8 -4 22 -10 32 -11 20 -42 133 -56 207 -21 114 -27 147 -32 200 -14 137
-7 470 12 561 2 12 7 39 10 60 4 22 11 56 17 78 6 21 8 41 5 44 -3 3 -2 10 3
16 8 10 29 70 35 99 2 7 6 20 10 29 4 9 9 22 10 30 1 7 7 22 13 33 6 11 11 23
12 28 0 4 7 23 15 42 9 20 16 39 16 43 1 4 7 13 13 21 6 7 12 19 13 27 3 22
102 183 162 264 52 70 200 224 266 279 61 50 177 123 270 171 53 27 99 49 101
49 3 0 31 9 63 21 31 12 64 23 72 25 8 2 27 8 43 14 15 6 27 8 27 6 0 -2 11 0
26 5 14 6 37 12 52 15 15 3 36 7 47 9 119 24 347 28 470 8 50 -7 105 -15 122
-15 18 -1 33 -5 33 -8 0 -4 17 -10 38 -14 38 -7 195 -58 247 -80 167 -71 280
-128 432 -217 130 -76 140 -75 177 12 8 19 31 73 51 120 21 47 38 90 40 95 2
9 7 22 37 93 6 15 11 30 10 35 -1 4 2 7 7 7 5 0 12 12 15 26 4 14 15 45 26 68
26 58 53 120 54 126 1 3 9 26 20 50 10 25 24 59 31 75 7 17 22 51 34 77 12 26
21 49 21 53 0 3 10 26 22 51 25 54 21 66 -38 105 -128 87 -517 264 -624 285
-13 3 -29 9 -35 13 -5 4 -32 14 -60 20 -27 7 -57 15 -65 18 -8 4 -23 8 -32 9
-10 2 -50 13 -90 23 -40 11 -86 22 -103 25 -16 2 -66 11 -110 19 -44 8 -107
18 -140 22 -33 3 -73 8 -90 11 -35 5 -452 13 -457 9z"/>
</g>
</svg>
